<svg version="1.0" xmlns="http://www.w3.org/2000/svg" width="32" height="32" viewBox="0 0 24 24"><path d="M10.4.8c-.44.44-.8 1.04-.8 1.32s-.6.72-1.36 1C3.28 4.92.2 10.8 1.56 15.88c.72 2.6 2.8 5.28 5.12 6.6 5.28 2.96 11.76 1.16 14.68-4.08 1.08-1.92 1.24-2.6 1.24-5.2s-.16-3.32-1.2-5.16c-1.24-2.28-3.32-4.08-5.64-4.92-.76-.28-1.36-.72-1.36-1C14.4 1.32 12.88 0 12 0c-.44 0-1.16.36-1.6.8m2.72.48c.84.84.52 1.12-1.12 1.12-.88 0-1.6-.16-1.6-.32 0-.56.92-1.28 1.6-1.28.36 0 .84.2 1.12.48m2 4.16c6.96 2.88 6.96 12.64 0 15.52C9.8 23.2 3.64 19.08 3.6 13.28 3.56 7.4 9.76 3.16 15.12 5.44" fill="#48C9FF"/><path d="M9 6.16c-1.6.68-3.36 2.52-4.04 4.12-.72 1.68-.72 2.52.04 2.52.32 0 .6.16.6.4 0 .2-.28.4-.6.4-1.32 0-.2 3.16 1.84 5.08 2 1.88 4.76 2.76 4.76 1.52 0-.32.2-.6.4-.6.24 0 .4.28.4.6 0 1.32 3.16.2 5.08-1.84 1.88-2 2.76-4.76 1.52-4.76-.32 0-.6-.2-.6-.4 0-.24.28-.4.6-.4 1.24 0 .36-2.76-1.52-4.76C15.56 6 12.4 4.88 12.4 6.2c0 .32-.16.6-.4.6-.2 0-.4-.28-.4-.6 0-.72-1-.76-2.6-.04m7.4 2.96c0 .84-2 5.12-2.72 5.84-.84.88-5.56 2.88-5.92 2.52-.4-.4 1.56-5.12 2.48-6 .48-.48 1.88-1.28 3.04-1.76 2.36-.92 3.12-1.08 3.12-.6" fill="#48C9FF"/><path d="M12.56 10.96c-1.76.8-2.12 1.24-2.92 3.04-.48 1.12-.8 2.16-.72 2.28.12.08 1.12-.24 2.28-.72 2-.88 2.96-2.04 3.76-4.68.36-1.12.12-1.08-2.4.08m-.16 2.24c0 .2-.16.4-.4.4-.2 0-.4-.2-.4-.4 0-.24.2-.4.4-.4.24 0 .4.16.4.4" fill="#48C9FF"/></svg>