<svg version="1.0" xmlns="http://www.w3.org/2000/svg" width="32" height="32" fill="#837fff" viewBox="0 0 24 24"><path d="M9.773 1.017a.93.93 0 0 0-.45.459c-.08.178-.089.38-.089 3.502v3.314l-1.978.014c-1.776.014-1.997.023-2.133.094-.37.206-.6.727-.483 1.097.047.15.689.816 3.436 3.567 1.861 1.866 3.45 3.422 3.53 3.459.192.089.595.089.787 0 .08-.037 1.669-1.594 3.53-3.459 2.747-2.752 3.389-3.417 3.436-3.567.117-.37-.113-.891-.483-1.097-.136-.07-.356-.08-2.128-.094l-1.983-.014V4.987c0-2.873-.009-3.323-.07-3.478a.92.92 0 0 0-.455-.483c-.164-.085-.3-.089-2.25-.089-1.8.004-2.095.014-2.217.08"/><path d="M.858 15.802a1.3 1.3 0 0 0-.478.351c-.394.426-.385.361-.371 3.328.014 2.508.019 2.578.113 2.784.117.248.394.534.651.67l.188.103h22.078l.188-.103c.258-.136.534-.422.651-.67.094-.206.099-.277.113-2.784.014-2.967.023-2.901-.37-3.328-.169-.188-.304-.286-.492-.351-.248-.094-.342-.099-3.736-.099h-3.479l-1.031 1.036c-1.481 1.481-1.856 1.706-2.883 1.706s-1.401-.225-2.883-1.706l-1.031-1.036-3.492.004c-3.375 0-3.502.004-3.736.094m17.208 3.764c.586.445.492 1.275-.178 1.58-.347.159-.745.07-1.022-.22-.385-.412-.281-1.101.211-1.401.169-.103.239-.117.506-.108.253.014.342.042.483.15m3.581-.07c.202.103.295.197.408.426.103.202.108.586.009.773-.155.304-.525.539-.839.539-.52-.004-.989-.567-.905-1.083.042-.234.258-.53.478-.647.234-.122.619-.127.848-.009"/></svg>