<svg xmlns="http://www.w3.org/2000/svg" viewBox="0 0 60 60" width="512" height="512"><path d="M58 7H44.33a4.965 4.965 0 0 0-4.851 3.79 24.4 24.4 0 0 1-3.11 7.371 18.05 18.05 0 0 0-12.738 0 24.4 24.4 0 0 1-3.109-7.361A4.966 4.966 0 0 0 15.67 7H2a2 2 0 0 0-2 2 5.9 5.9 0 0 0 .605 2.447 5 5 0 0 0 .528.835A2 2 0 0 0 1 13a5.8 5.8 0 0 0 1.135 3.279A2 2 0 0 0 2 17a5.8 5.8 0 0 0 1.135 3.279A2 2 0 0 0 3 21a4.82 4.82 0 0 0 5 5h3.122a7.5 7.5 0 0 0 1.6 3.294A3 3 0 0 0 11 32v6a3 3 0 0 0 1.971 2.807 17.988 17.988 0 0 0 34.058 0A3 3 0 0 0 49 38v-6a3 3 0 0 0-1.726-2.706A7.5 7.5 0 0 0 48.878 26H52a4.82 4.82 0 0 0 5-5 2 2 0 0 0-.135-.721A5.8 5.8 0 0 0 58 17a2 2 0 0 0-.135-.721A5.8 5.8 0 0 0 59 13a2 2 0 0 0-.133-.718 5 5 0 0 0 .528-.835A5.9 5.9 0 0 0 60 9a2 2 0 0 0-2-2M31 19.115c3.23.666 6.089 4.491 7.333 9.885H31Zm5.42 1.216A15.88 15.88 0 0 1 44.837 29h-4.463a19.5 19.5 0 0 0-3.954-8.669M29 19.115V29h-7.333c1.244-5.394 4.103-9.219 7.333-9.885M19.626 29h-4.463a15.88 15.88 0 0 1 8.417-8.669A19.5 19.5 0 0 0 19.626 29M12 24H8a2.72 2.72 0 0 1-2.928-2.331A5.5 5.5 0 0 0 7 22h5a1 1 0 0 0 0-2H7a2.95 2.95 0 0 1-1.932-.59 3.06 3.06 0 0 1-.968-1.731A5.6 5.6 0 0 0 6 18h5a1 1 0 0 0 0-2H6a2.95 2.95 0 0 1-1.932-.59 3.06 3.06 0 0 1-.968-1.731A5.6 5.6 0 0 0 5 14h5a1 1 0 0 0 0-2H5a2.98 2.98 0 0 1-1.938-.591l-.01-.005c-.016-.012-.028-.029-.044-.041a2.6 2.6 0 0 1-.613-.81A4 4 0 0 1 2 9h13.67a2.97 2.97 0 0 1 2.909 2.27 26.3 26.3 0 0 0 3.2 7.7 17.86 17.86 0 0 0-8.041 8.32A5 5 0 0 1 13 25a1 1 0 0 0-1-1m3.163 17h4.463a19.5 19.5 0 0 0 3.954 8.669A15.88 15.88 0 0 1 15.163 41M29 50.885c-3.23-.666-6.089-4.491-7.333-9.885H29Zm2 0V41h7.333c-1.244 5.394-4.103 9.219-7.333 9.885m5.42-1.216A19.5 19.5 0 0 0 40.374 41h4.463a15.88 15.88 0 0 1-8.417 8.669M47 38a1 1 0 0 1-1 1H14a1 1 0 0 1-1-1v-6a1 1 0 0 1 1-1h32a1 1 0 0 1 1 1Zm10.6-27.447a2.6 2.6 0 0 1-.626.822l-.03.029-.011.005A2.98 2.98 0 0 1 55 12h-5a1 1 0 0 0 0 2h5a5.6 5.6 0 0 0 1.906-.322 3.06 3.06 0 0 1-.969 1.728A2.95 2.95 0 0 1 54 16h-5a1 1 0 0 0 0 2h5a5.6 5.6 0 0 0 1.9-.321 3.05 3.05 0 0 1-.967 1.727A2.95 2.95 0 0 1 53 20h-5a1 1 0 0 0 0 2h5a5.5 5.5 0 0 0 1.927-.331A2.72 2.72 0 0 1 52 24h-4a1 1 0 0 0-1 1 5.1 5.1 0 0 1-.738 2.283 17.86 17.86 0 0 0-8.039-8.316 26.3 26.3 0 0 0 3.2-7.7A2.97 2.97 0 0 1 44.33 9L58 8.995a4 4 0 0 1-.395 1.558Z" fill="#FFF"/></svg>